#!OML:ASF H:\Pregnant\Project 1\Capture day 1\Session 1\femalepreg.ASF
:FULLY-SPECIFIED
:DEGREES
724
root 6.9406 15.3335 21.5747 345.351 -93.7513 -329.161
lowerback -18.4812 0.166102 3.11894
upperback -4.62608 -0.761979 1.48429
thorax 5.35186 -0.475871 -0.375087
lowerneck -19.4843 2.99613 4.09278
upperneck 24.2039 2.55373 0.432429
head 11.1312 1.50659 -0.156915
rclavicle -2.16178e-015 -1.11319e-014
rhumerus -32.263 7.65713 -82.5211
rradius 27.1592
rwrist -5.07005
rhand -22.9226 -17.9642
rfingers 7.12502
rthumb 3.51786 -47.9149
lclavicle -2.16178e-015 -1.11319e-014
lhumerus -40.3046 1.03623 82.9163
lradius 25.5242
lwrist 32.2451
lhand -32.3278 4.1363
lfingers 7.12502
lthumb -5.56518 34.0432
rfemur -40.4227 21.6952 18.3028
rtibia 41.7103
rfoot -14.2476 -12.1924
rtoes -6.15724
lfemur -14.9908 -17.9641 -9.75249
ltibia 33.3712
lfoot -8.3838 -3.12257
ltoes -34.7201
725
root 6.92234 15.3126 21.5485 341.556 -93.8449 -325.525
lowerback -18.2066 0.216072 3.57178
upperback -4.51657 -0.768887 1.57291
thorax 5.31797 -0.471373 -0.536966
lowerneck -19.5834 3.09143 4.24044
upperneck 23.981 2.69835 0.25438
head 11.0748 1.56567 -0.223225
rclavicle -2.91965e-015 -7.95139e-015
rhumerus -31.6344 7.844 -82.6693
rradius 27.1756
rwrist -5.32132
rhand -22.8778 -18.0115
rfingers 7.12502
rthumb 3.56112 -47.9615
lclavicle -2.91965e-015 -7.95139e-015
lhumerus -40.1959 0.00527997 84.1657
lradius 25.9075
lwrist 31.7302
lhand -32.0934 3.95258
lfingers 7.12502
lthumb -5.3389 33.8653
rfemur -40.1944 21.763 18.8084
rtibia 41.8396
rfoot -14.3451 -12.2363
rtoes -6.22353
lfemur -15.8222 -17.7675 -9.45095
ltibia 35.254
lfoot -8.18077 -3.28743
ltoes -34.6512
726
root 6.90436 15.2915 21.5221 337.77 -93.9545 -321.913
lowerback -17.9258 0.261726 4.02226
upperback -4.39688 -0.778523 1.66304
thorax 5.29096 -0.467715 -0.69623
lowerneck -19.6935 3.18204 4.36862
upperneck 23.7573 2.83429 0.100157
head 11.02 1.62194 -0.278619
rclavicle 5.72127e-015 -5.1684e-015
rhumerus -31.0051 8.05914 -82.8301
rradius 27.1742
rwrist -5.56739
rhand -22.8908 -18.0826
rfingers 7.12502
rthumb 3.54856 -48.0328
lclavicle 5.72127e-015 -5.1684e-015
lhumerus -40.0649 -0.9267 85.2977
lradius 26.3036
lwrist 30.9205
lhand -32.0329 3.91315
lfingers 7.12502
lthumb -5.28052 33.8274
rfemur -39.9333 21.8542 19.3292
rtibia 41.9419
rfoot -14.4079 -12.3284
rtoes -6.44112
lfemur -16.6548 -17.5761 -9.14242
ltibia 37.1408
lfoot -7.87341 -3.45234
ltoes -34.5086
727
root 6.88676 15.2709 21.4963 334.125 -94.0667 -318.444
lowerback -17.6492 0.303519 4.47174
upperback -4.27002 -0.79051 1.74353
thorax 5.27295 -0.464652 -0.865448
lowerneck -19.816 3.26879 4.48806
upperneck 23.5381 2.95872 -0.0291698
head 10.969 1.67518 -0.324935
rclavicle -1.26663e-014 4.77083e-015
rhumerus -30.3702 8.27996 -83.0023
rradius 27.1433
rwrist -5.77876
rhand -22.9755 -18.1767
rfingers 7.12502
rthumb 3.46675 -48.1282
lclavicle -1.26663e-014 4.77083e-015
lhumerus -39.8887 -1.68737 86.2311
lradius 26.6616
lwrist 29.5489
lhand -32.1298 4.04541
lfingers 7.12502
lthumb -5.37405 33.9573
rfemur -39.6584 21.9375 19.85
rtibia 42.0298
rfoot -14.4436 -12.4532
rtoes -6.80621
lfemur -17.5007 -17.4186 -8.83967
ltibia 39.0181
lfoot -7.44616 -3.60077
ltoes -34.2638
728
root 6.86946 15.2509 21.471 330.718 -94.1772 -315.212
lowerback -17.3807 0.340738 4.90322
upperback -4.1407 -0.803556 1.81826
thorax 5.26136 -0.461907 -1.0306
lowerneck -19.9423 3.34904 4.59304
upperneck 23.3236 3.0709 -0.135716
head 10.9199 1.72422 -0.362289
rclavicle -4.57826e-015 -4.37326e-015
rhumerus -29.7283 8.4636 -83.1592
rradius 27.0656
rwrist -5.87916
rhand -23.1032 -18.2655
rfingers 7.12502
rthumb 3.34345 -48.219
lclavicle -4.57826e-015 -4.37326e-015
lhumerus -39.6625 -2.23287 86.9332
lradius 26.9474
lwrist 27.4537
lhand -32.3531 4.3579
lfingers 7.12502
lthumb -5.58968 34.2642
rfemur -39.3803 22.0058 20.3614
rtibia 42.1146
rfoot -14.4626 -12.601
rtoes -7.28419
lfemur -18.3505 -17.3255 -8.55334
ltibia 40.8616
lfoot -6.88869 -3.69902
ltoes -33.9297
729
root 6.85255 15.2317 21.4463 327.695 -94.2734 -312.354
lowerback -17.1264 0.374848 5.30635
upperback -4.01383 -0.813859 1.87714
thorax 5.25456 -0.457814 -1.19582
lowerneck -20.0701 3.41942 4.68154
upperneck 23.1161 3.16505 -0.21296
head 10.8728 1.76704 -0.388956
rclavicle 1.41634e-015 -8.74653e-015
rhumerus -29.0881 8.62405 -83.3164
rradius 26.9517
rwrist -5.9182
rhand -23.2183 -18.3392
rfingers 7.12502
rthumb 3.23233 -48.2945
lclavicle 1.41634e-015 -8.74653e-015
lhumerus -39.3926 -2.60429 87.4032
lradius 27.1527
lwrist 24.6606
lhand -32.6492 4.80707
lfingers 7.12502
lthumb -5.87549 34.7056
rfemur -39.1188 22.0493 20.8416
rtibia 42.2108
rfoot -14.4769 -12.759
rtoes -7.83227
lfemur -19.209 -17.2868 -8.2981
ltibia 42.6546
lfoot -6.19398 -3.7649
ltoes -33.4965
730
root 6.83615 15.2136 21.4225 325.147 -94.3397 -309.948
lowerback -16.8948 0.39924 5.66737
upperback -3.89839 -0.828822 1.92105
thorax 5.24735 -0.456638 -1.35407
lowerneck -20.1862 3.48655 4.76177
upperneck 22.9145 3.25203 -0.273181
head 10.8252 1.80775 -0.409319
rclavicle 1.25141e-014 -3.1408e-014
rhumerus -28.4521 8.77683 -83.4747
rradius 26.797
rwrist -5.8891
rhand -23.3149 -18.3978
rfingers 7.12502
rthumb 3.13904 -48.3544
lclavicle 1.25141e-014 -3.1408e-014
lhumerus -39.103 -2.87027 87.6841
lradius 27.298
lwrist 21.4104
lhand -32.9477 5.29369
lfingers 7.12502
lthumb -6.16372 35.184
rfemur -38.9024 22.0582 21.2598
rtibia 42.3322
rfoot -14.5137 -12.897
rtoes -8.28812
lfemur -20.0909 -17.3082 -8.08691
ltibia 44.3805
lfoot -5.35075 -3.7924
ltoes -32.9444
731
root 6.82012 15.1963 21.3995 323.073 -94.3726 -307.989
lowerback -16.692 0.419613 5.98054
upperback -3.79488 -0.840403 1.9443
thorax 5.24312 -0.454416 -1.50658
lowerneck -20.2873 3.54706 4.84249
upperneck 22.7194 3.32542 -0.31967
head 10.7768 1.84377 -0.427076
rclavicle 9.31803e-017 -1.55052e-014
rhumerus -27.8267 8.88516 -83.6345
rradius 26.6077
rwrist -5.77301
rhand -23.3895 -18.4355
rfingers 7.12502
rthumb 3.06691 -48.3932
lclavicle 9.31803e-017 -1.55052e-014
lhumerus -38.8137 -3.17164 87.8503
lradius 27.4179
lwrist 18.1017
lhand -33.1832 5.6657
lfingers 7.12502
lthumb -6.39105 35.5493
rfemur -38.7387 22.0251 21.6183
rtibia 42.4865
rfoot -14.5558 -13.0276
rtoes -8.81007
lfemur -20.9984 -17.3763 -7.92276
ltibia 46.0333
lfoot -4.36113 -3.79004
ltoes -32.2852
732
root 6.80425 15.1804 21.377 321.466 -94.3719 -306.464
lowerback -16.5251 0.431155 6.23392
upperback -3.70542 -0.855016 1.95976
thorax 5.24357 -0.45467 -1.63444
lowerneck -20.3769 3.60189 4.90294
upperneck 22.5355 3.39436 -0.356129
head 10.7298 1.87703 -0.438706
rclavicle -1.5451e-015 4.77083e-015
rhumerus -27.2073 8.97432 -83.7736
rradius 26.384
rwrist -5.53783
rhand -23.3826 -18.4261
rfingers 7.12502
rthumb 3.07358 -48.3837
lclavicle -1.5451e-015 4.77083e-015
lhumerus -38.5489 -3.61847 87.9995
lradius 27.5567
lwrist 15.1801
lhand -33.3546 5.78538
lfingers 7.12502
lthumb -6.55652 35.6639
rfemur -38.6346 21.9704 21.9023
rtibia 42.6699
rfoot -14.6315 -13.1279
rtoes -9.18221
lfemur -21.9351 -17.4975 -7.80191
ltibia 47.6037
lfoot -3.22667 -3.74923
ltoes -31.4726
733
root 6.78842 15.1665 21.3559 320.249 -94.3359 -305.295
lowerback -16.3947 0.440482 6.44949
upperback -3.63255 -0.867333 1.9565
thorax 5.24625 -0.454635 -1.76061
lowerneck -20.4551 3.65052 4.95448
upperneck 22.3664 3.45424 -0.38201
head 10.6856 1.9065 -0.446588
rclavicle -2.75348e-014 3.26007e-014
rhumerus -26.6028 9.0343 -83.9159
rradius 26.1352
rwrist -5.23629
rhand -23.3622 -18.41
rfingers 7.12502
rthumb 3.09331 -48.3673
lclavicle -2.75348e-014 3.26007e-014
lhumerus -38.3216 -4.30278 88.1834
lradius 27.7421
lwrist 12.9822
lhand -33.4814 5.57243
lfingers 7.12502
lthumb -6.679 35.4471
rfemur -38.5881 21.891 22.1075
rtibia 42.8673
rfoot -14.7448 -13.1809
rtoes -9.32391
lfemur -22.9161 -17.6528 -7.72198
ltibia 49.0933
lfoot -1.95783 -3.6948
ltoes -30.5145
734
root 6.77106 15.1549 21.3329 319.53 -94.2918 -304.612
lowerback -16.2984 0.44962 6.59096
upperback -3.56571 -0.870382 1.95646
thorax 5.2629 -0.45082 -1.84004
lowerneck -20.5218 3.6922 4.98278
upperneck 22.2162 3.5095 -0.399604
head 10.6454 1.93274 -0.448521
rclavicle -5.54423e-015 -1.59028e-015
rhumerus -26.0212 9.08244 -84.0479
rradius 25.8742
rwrist -4.88801
rhand -23.3223 -18.378
rfingers 7.12502
rthumb 3.13186 -48.3347
lclavicle -5.54423e-015 -1.59028e-015
lhumerus -38.1403 -5.21895 88.4361
lradius 27.989
lwrist 11.6372
lhand -33.5711 5.00835
lfingers 7.12502
lthumb -6.76555 34.8803
rfemur -38.5487 21.8514 22.2702
rtibia 43.0537
rfoot -14.8486 -13.2505
rtoes -9.45762
lfemur -23.8876 -17.8108 -7.67138
ltibia 50.4983
lfoot -0.602686 -3.64853
ltoes -29.3781
735
root 6.7519 15.1461 21.3085 319.372 -94.257 -304.476
lowerback -16.2359 0.475355 6.69899
upperback -3.50635 -0.847873 1.9417
thorax 5.2921 -0.43473 -1.9114
lowerneck -20.5784 3.72583 5.01586
upperneck 22.0854 3.55027 -0.41254
head 10.6102 1.95319 -0.451887
rclavicle 1.27036e-015 -2.26615e-014
rhumerus -25.4737 9.13585 -84.1983
rradius 25.6163
rwrist -4.55737
rhand -23.3103 -18.3656
rfingers 7.12502
rthumb 3.14347 -48.3222
lclavicle 1.27036e-015 -2.26615e-014
lhumerus -38.0058 -6.33321 88.7214
lradius 28.3004
lwrist 11.1052
lhand -33.6082 4.10461
lfingers 7.12502
lthumb -6.80133 33.9754
rfemur -38.5089 21.8568 22.4004
rtibia 43.2062
rfoot -14.9283 -13.326
rtoes -9.60168
lfemur -24.8524 -17.9382 -7.64324
ltibia 51.8275
lfoot 0.792286 -3.6447
ltoes -28.0252
736
root 6.73064 15.1404 21.2825 319.827 -94.2538 -304.945
lowerback -16.2023 0.520789 6.77294
upperback -3.45227 -0.796496 1.92601
thorax 5.3344 -0.404857 -1.959
lowerneck -20.6214 3.75387 5.05196
upperneck 21.973 3.58311 -0.428931
head 10.5792 1.96971 -0.45836
rclavicle 3.35449e-016 -2.38542e-015
rhumerus -24.9664 9.19836 -84.3607
rradius 25.3739
rwrist -4.25382
rhand -23.3328 -18.3784
rfingers 7.12502
rthumb 3.12168 -48.3353
lclavicle 3.35449e-016 -2.38542e-015
lhumerus -37.9161 -7.5302 89.0124
lradius 28.6738
lwrist 11.2315
lhand -33.5793 2.93841
lfingers 7.12502
lthumb -6.77349 32.8101
rfemur -38.4507 21.9244 22.5158
rtibia 43.3055
rfoot -14.9774 -13.4017
rtoes -9.7283
lfemur -25.7903 -18.0271 -7.62888
ltibia 53.0875
lfoot 2.16301 -3.6894
ltoes -26.4058
737
root 6.70751 15.1378 21.2557 320.598 -94.2684 -305.722
lowerback -16.1941 0.582349 6.8295
upperback -3.40361 -0.723327 1.90796
thorax 5.38685 -0.364529 -1.99509
lowerneck -20.6589 3.77083 5.07145
upperneck 21.8813 3.60288 -0.435426
head 10.5537 1.97997 -0.460588
rclavicle 4.65902e-016 8.34896e-015
rhumerus -24.5049 9.29413 -84.5329
rradius 25.1622
rwrist -4.01036
rhand -23.3829 -18.4198
rfingers 7.12502
rthumb 3.0733 -48.3774
lclavicle 4.65902e-016 8.34896e-015
lhumerus -37.8577 -8.71158 89.2756
lradius 29.0984
lwrist 11.8509
lhand -33.4402 1.56918
lfingers 7.12502
lthumb -6.63913 31.4451
rfemur -38.3662 22.0288 22.6211
rtibia 43.3463
rfoot -15.0023 -13.4733
rtoes -9.83142
lfemur -26.7121 -18.0739 -7.62122
ltibia 54.2923
lfoot 3.43636 -3.81856
ltoes -24.5478
